<svg width="25" height="25" viewBox="0 0 25 25" fill="none" xmlns="http://www.w3.org/2000/svg">
<g clip-path="url(#clip0_277_190)">
<g clip-path="url(#clip1_277_190)">
<path d="M5.96506 21.1331V12.167L3.1064 9.6231L0.542969 8.21143V19.5508C0.542969 20.4263 1.2722 21.1331 2.16963 21.1331H5.96506Z" fill="#3B6AFF"/>
<path d="M18.978 21.133H22.7735C23.6736 21.133 24.4001 20.4236 24.4001 19.5507V8.21143L21.4966 9.82833L18.978 12.1669V21.133Z" fill="#3B6AFF"/>
<path d="M5.96516 12.1669L5.57617 8.66356L5.96516 5.31055L12.4716 10.0573L18.9781 5.31055L19.4132 8.48253L18.9781 12.1669L12.4716 16.9136L5.96516 12.1669Z" fill="#3B6AFF"/>
<path d="M18.978 5.31057V12.1669L24.4001 8.21133V6.10166C24.4001 4.145 22.1039 3.02957 20.4963 4.20302L18.978 5.31057Z" fill="#3B6AFF"/>
<path d="M0.542969 8.21137L3.03669 10.0307L5.96506 12.1669V5.31061L4.44678 4.20306C2.83642 3.02952 0.542969 4.14505 0.542969 6.10161V8.21137Z" fill="#3B6AFF"/>
</g>
</g>
<defs>
<clipPath id="clip0_277_190">
<rect width="24.9346" height="24.9346" fill="white" transform="translate(0.00415039 0.00415039)"/>
</clipPath>
<clipPath id="clip1_277_190">
<rect width="23.8571" height="17.4952" fill="white" transform="translate(0.542969 3.72388)"/>
</clipPath>
</defs>
</svg>
