<svg width="25" height="25" viewBox="0 0 25 25" fill="none" xmlns="http://www.w3.org/2000/svg">
<path fill-rule="evenodd" clip-rule="evenodd" d="M12.5 0.00415039C5.61182 0.00415039 0.0327148 5.58326 0.0327148 12.4714C0.0327148 17.9882 3.60147 22.6479 8.55722 24.2998C9.18058 24.4089 9.41434 24.0348 9.41434 23.7076C9.41434 23.4115 9.39876 22.4297 9.39876 21.3855C6.26636 21.9621 5.45598 20.6219 5.20664 19.9206C5.06638 19.5622 4.4586 18.4557 3.92874 18.1596C3.49239 17.9259 2.86902 17.3493 3.91316 17.3337C4.89495 17.3181 5.59624 18.2375 5.83 18.6116C6.95206 20.4972 8.74423 19.9674 9.4611 19.6401C9.57018 18.8297 9.89745 18.2843 10.2559 17.9726C7.48192 17.6609 4.58327 16.5856 4.58327 11.8169C4.58327 10.4611 5.06638 9.33903 5.86117 8.46632C5.7365 8.15464 5.30014 6.87674 5.98584 5.16249C5.98584 5.16249 7.02998 4.83522 9.41434 6.44038C10.4117 6.15987 11.4714 6.01961 12.5312 6.01961C13.5909 6.01961 14.6506 6.15987 15.648 6.44038C18.0324 4.81964 19.0765 5.16249 19.0765 5.16249C19.7622 6.87674 19.3258 8.15464 19.2012 8.46632C19.9959 9.33903 20.4791 10.4455 20.4791 11.8169C20.4791 16.6012 17.5648 17.6609 14.7909 17.9726C15.2428 18.3622 15.6324 19.1103 15.6324 20.2791C15.6324 21.9466 15.6168 23.2868 15.6168 23.7076C15.6168 24.0348 15.8506 24.4244 16.4739 24.2998C18.9489 23.4642 21.0995 21.8735 22.6231 19.7517C24.1467 17.6298 24.9665 15.0836 24.9673 12.4714C24.9673 5.58326 19.3882 0.00415039 12.5 0.00415039Z" fill="#3B6AFF"/>
</svg>
