<svg width="21" height="21" viewBox="0 0 21 21" fill="none" xmlns="http://www.w3.org/2000/svg">
<path d="M2.9962 0.952148C2.41067 0.952148 1.84912 1.18475 1.43509 1.59878C1.02105 2.01282 0.788452 2.57437 0.788452 3.1599C0.788452 3.74543 1.02105 4.30698 1.43509 4.72101C1.84912 5.13504 2.41067 5.36764 2.9962 5.36764C3.58173 5.36764 4.14328 5.13504 4.55731 4.72101C4.97135 4.30698 5.20395 3.74543 5.20395 3.1599C5.20395 2.57437 4.97135 2.01282 4.55731 1.59878C4.14328 1.18475 3.58173 0.952148 2.9962 0.952148ZM0.91832 7.18579C0.883877 7.18579 0.850844 7.19947 0.826489 7.22383C0.802134 7.24818 0.788452 7.28121 0.788452 7.31566V20.8219C0.788452 20.8936 0.846633 20.9517 0.91832 20.9517H5.07408C5.10852 20.9517 5.14156 20.9381 5.16591 20.9137C5.19027 20.8894 5.20395 20.8563 5.20395 20.8219V7.31566C5.20395 7.28121 5.19027 7.24818 5.16591 7.22383C5.14156 7.19947 5.10852 7.18579 5.07408 7.18579H0.91832ZM7.67143 7.18579C7.63699 7.18579 7.60395 7.19947 7.5796 7.22383C7.55524 7.24818 7.54156 7.28121 7.54156 7.31566V20.8219C7.54156 20.8936 7.59974 20.9517 7.67143 20.9517H11.8272C11.8616 20.9517 11.8947 20.9381 11.919 20.9137C11.9434 20.8894 11.9571 20.8563 11.9571 20.8219V13.5493C11.9571 13.0327 12.1623 12.5372 12.5276 12.1718C12.8929 11.8065 13.3884 11.6013 13.9051 11.6013C14.4217 11.6013 14.9172 11.8065 15.2825 12.1718C15.6478 12.5372 15.8531 13.0327 15.8531 13.5493V20.8219C15.8531 20.8936 15.9113 20.9517 15.983 20.9517H20.1387C20.1732 20.9517 20.2062 20.9381 20.2305 20.9137C20.2549 20.8894 20.2686 20.8563 20.2686 20.8219V11.8662C20.2686 9.34471 18.0764 7.3728 15.5674 7.60033C14.7911 7.67154 14.0308 7.86363 13.3139 8.16967L11.9571 8.75147V7.31566C11.9571 7.28121 11.9434 7.24818 11.919 7.22383C11.8947 7.19947 11.8616 7.18579 11.8272 7.18579H7.67143Z" fill="#3B6AFF"/>
</svg>
