<svg width="200" height="58" viewBox="0 0 200 58" fill="none" xmlns="http://www.w3.org/2000/svg">
<path d="M0 2.19699L23.3412 2.00034L35.1098 22.1643L30.8927 29.0495L19.6144 9.18068L11.8667 9.08235L27.4602 35.7381L23.4392 42.4266L0 2.19699Z" fill="url(#paint0_linear_277_484)"/>
<path d="M29.9489 2H37.7947L45.3463 15.4754L53.192 2H61.0378L29.9489 56L25.928 49.1148L41.5214 22.2131L29.9489 2Z" fill="url(#paint1_linear_277_484)"/>
<path d="M98.233 11.0909V46H91.858L76.6705 24.0284H76.4148V46H69.0341V11.0909H75.5114L90.5795 33.0455H90.8864V11.0909H98.233ZM104.195 46V19.8182H111.456V46H104.195ZM107.842 16.4432C106.763 16.4432 105.837 16.0852 105.064 15.3693C104.303 14.642 103.922 13.7727 103.922 12.7614C103.922 11.7614 104.303 10.9034 105.064 10.1875C105.837 9.46023 106.763 9.09659 107.842 9.09659C108.922 9.09659 109.842 9.46023 110.604 10.1875C111.376 10.9034 111.763 11.7614 111.763 12.7614C111.763 13.7727 111.376 14.642 110.604 15.3693C109.842 16.0852 108.922 16.4432 107.842 16.4432ZM129.102 46.5114C126.42 46.5114 124.114 45.9432 122.182 44.8068C120.261 43.6591 118.784 42.0682 117.75 40.0341C116.727 38 116.216 35.6591 116.216 33.0114C116.216 30.3295 116.733 27.9773 117.767 25.9545C118.813 23.9205 120.295 22.3352 122.216 21.1989C124.136 20.0511 126.42 19.4773 129.068 19.4773C131.352 19.4773 133.352 19.892 135.068 20.7216C136.784 21.5511 138.142 22.7159 139.142 24.2159C140.142 25.7159 140.693 27.4773 140.795 29.5H133.943C133.75 28.1932 133.239 27.142 132.409 26.3466C131.591 25.5398 130.517 25.1364 129.188 25.1364C128.062 25.1364 127.08 25.4432 126.239 26.0568C125.409 26.6591 124.761 27.5398 124.295 28.6989C123.83 29.858 123.597 31.2614 123.597 32.9091C123.597 34.5795 123.824 36 124.278 37.1705C124.744 38.3409 125.398 39.233 126.239 39.8466C127.08 40.4602 128.062 40.767 129.188 40.767C130.017 40.767 130.761 40.5966 131.42 40.2557C132.091 39.9148 132.642 39.4205 133.074 38.7727C133.517 38.1136 133.807 37.3239 133.943 36.4034H140.795C140.682 38.4034 140.136 40.1648 139.159 41.6875C138.193 43.1989 136.858 44.3807 135.153 45.233C133.449 46.0852 131.432 46.5114 129.102 46.5114ZM152.024 38.4659L152.041 29.7557H153.098L161.484 19.8182H169.82L158.553 32.9773H156.831L152.024 38.4659ZM145.445 46V11.0909H152.706V46H145.445ZM161.808 46L154.104 34.5966L158.945 29.4659L170.314 46H161.808ZM178.287 55.8182C177.366 55.8182 176.503 55.7443 175.696 55.5966C174.901 55.4602 174.241 55.2841 173.719 55.0682L175.355 49.6477C176.207 49.9091 176.974 50.0511 177.656 50.0739C178.349 50.0966 178.946 49.9375 179.446 49.5966C179.957 49.2557 180.372 48.6761 180.69 47.858L181.116 46.75L171.724 19.8182H179.361L184.781 39.0455H185.054L190.526 19.8182H198.213L188.037 48.8295C187.548 50.2386 186.884 51.4659 186.043 52.5114C185.213 53.5682 184.162 54.3807 182.889 54.9489C181.616 55.5284 180.082 55.8182 178.287 55.8182Z" fill="url(#paint2_linear_277_484)"/>
<defs>
<linearGradient id="paint0_linear_277_484" x1="7.14531" y1="2.13679" x2="56.9559" y2="55.8544" gradientUnits="userSpaceOnUse">
<stop stop-color="#6600FF"/>
<stop offset="1" stop-color="#3B6AFF"/>
</linearGradient>
<linearGradient id="paint1_linear_277_484" x1="6.00538" y1="2.13652" x2="50.0858" y2="29.0804" gradientUnits="userSpaceOnUse">
<stop stop-color="#6600FF"/>
<stop offset="1" stop-color="#3B6AFF"/>
</linearGradient>
<linearGradient id="paint2_linear_277_484" x1="62.7904" y1="28.6027" x2="212.437" y2="28.6027" gradientUnits="userSpaceOnUse">
<stop stop-color="#3B6AFF"/>
<stop offset="1" stop-color="#6600FF"/>
</linearGradient>
</defs>
</svg>
