<svg width="315" height="315" viewBox="0 0 315 315" fill="none" xmlns="http://www.w3.org/2000/svg">
<mask id="path-1-outside-1_463_453" maskUnits="userSpaceOnUse" x="0" y="80" width="157" height="235" fill="black">
<rect fill="white" y="80" width="157" height="235"/>
<path fill-rule="evenodd" clip-rule="evenodd" d="M1 81H78.5H156V158.5H78.5V236H156V313.5H78.5H1V236V158.5V81Z"/>
</mask>
<path d="M1 81V80H0V81H1ZM156 81H157V80H156V81ZM156 158.5V159.5H157V158.5H156ZM78.5 158.5V157.5H77.5V158.5H78.5ZM78.5 236H77.5V237H78.5V236ZM156 236H157V235H156V236ZM156 313.5V314.5H157V313.5H156ZM1 313.5H0V314.5H1V313.5ZM78.5 80H1V82H78.5V80ZM156 80H78.5V82H156V80ZM157 158.5V81H155V158.5H157ZM78.5 159.5H156V157.5H78.5V159.5ZM79.5 236V158.5H77.5V236H79.5ZM78.5 237H156V235H78.5V237ZM155 236V313.5H157V236H155ZM156 312.5H78.5V314.5H156V312.5ZM1 314.5H78.5V312.5H1V314.5ZM0 236V313.5H2V236H0ZM0 158.5V236H2V158.5H0ZM0 81V158.5H2V81H0Z" fill="#C778DD" mask="url(#path-1-outside-1_463_453)"/>
<mask id="path-3-inside-2_463_453" fill="white">
<path fill-rule="evenodd" clip-rule="evenodd" d="M156 0H235.25H314.5V79.25V158.5V237.75H235.25H156V158.5H235.25V79.25H156V0Z"/>
</mask>
<path d="M156 0V-1H155V0H156ZM314.5 0H315.5V-1H314.5V0ZM314.5 237.75V238.75H315.5V237.75H314.5ZM156 237.75H155V238.75H156V237.75ZM156 158.5V157.5H155V158.5H156ZM235.25 158.5V159.5H236.25V158.5H235.25ZM235.25 79.25H236.25V78.25H235.25V79.25ZM156 79.25H155V80.25H156V79.25ZM235.25 -1H156V1H235.25V-1ZM314.5 -1H235.25V1H314.5V-1ZM315.5 79.25V0H313.5V79.25H315.5ZM315.5 158.5V79.25H313.5V158.5H315.5ZM315.5 237.75V158.5H313.5V237.75H315.5ZM235.25 238.75H314.5V236.75H235.25V238.75ZM235.25 236.75H156V238.75H235.25V236.75ZM157 237.75V158.5H155V237.75H157ZM156 159.5H235.25V157.5H156V159.5ZM234.25 79.25V158.5H236.25V79.25H234.25ZM156 80.25H235.25V78.25H156V80.25ZM155 0V79.25H157V0H155Z" fill="#C778DD" mask="url(#path-3-inside-2_463_453)"/>
</svg>
