<svg width="61" height="61" viewBox="0 0 61 61" fill="none" xmlns="http://www.w3.org/2000/svg">
<path d="M8.96604 54.3867L4.17468 0.644287H56.8253L52.0292 54.3786L30.4681 60.3561L8.96604 54.3867Z" fill="#1572B6"/>
<path d="M30.5005 55.7873L47.9231 50.9569L52.0221 5.03821H30.5005V55.7873Z" fill="#33A9DC"/>
<path d="M30.5005 24.5091H39.2225L39.8249 17.7595H30.5005V11.1682H47.0286L46.8704 12.9367L45.2501 31.1004H30.5005V24.5091Z" fill="white"/>
<path d="M30.5396 41.6273L30.5105 41.6358L23.17 39.6538L22.7006 34.3969H16.085L17.0081 44.7464L30.5096 48.4936L30.5396 48.485V41.6273Z" fill="#EBEBEB"/>
<path d="M38.6621 30.8217L37.8682 39.6485L30.5167 41.633V48.4907L44.0292 44.7459L44.1283 43.6321L45.2749 30.8217H38.6621Z" fill="white"/>
<path d="M30.5228 11.1682V17.7595H14.6018L14.4698 16.2784L14.1696 12.9367L14.0118 11.1682H30.5228ZM30.5004 24.5101V31.1014H23.2524L23.1204 29.6202L22.8197 26.2786L22.6624 24.5101H30.5004Z" fill="#EBEBEB"/>
</svg>
