<svg width="38" height="58" viewBox="0 0 38 58" fill="none" xmlns="http://www.w3.org/2000/svg">
<g clip-path="url(#clip0_277_328)">
<path d="M9.5 58C14.744 58 19 53.6693 19 48.3333V38.6666H9.5C4.256 38.6666 0 42.9973 0 48.3333C0 53.6693 4.256 58 9.5 58Z" fill="#0ACF83"/>
<path d="M0 29C0 23.664 4.256 19.3334 9.5 19.3334H19V38.6667H9.5C4.256 38.6667 0 34.336 0 29Z" fill="#A259FF"/>
<path d="M0 9.66667C0 4.33067 4.256 0 9.5 0H19V19.3333H9.5C4.256 19.3333 0 15.0027 0 9.66667Z" fill="#F24E1E"/>
<path d="M19 0H28.5C33.744 0 38 4.33067 38 9.66667C38 15.0027 33.744 19.3333 28.5 19.3333H19V0Z" fill="#FF7262"/>
<path d="M38 29C38 34.336 33.744 38.6667 28.5 38.6667C23.256 38.6667 19 34.336 19 29C19 23.664 23.256 19.3334 28.5 19.3334C33.744 19.3334 38 23.664 38 29Z" fill="#1ABCFE"/>
</g>
<defs>
<clipPath id="clip0_277_328">
<rect width="38" height="58" fill="white"/>
</clipPath>
</defs>
</svg>
