<svg width="68" height="68" viewBox="0 0 68 68" fill="none" xmlns="http://www.w3.org/2000/svg">
<path d="M12.5417 57.8021L7.76685 4.25H60.2331L55.4518 57.7936L33.9681 63.75L12.5417 57.8021Z" fill="#E44F26"/>
<path d="M34 59.1983L51.3612 54.3851L55.4455 8.62964H34V59.1983Z" fill="#F1662A"/>
<path d="M34 28.4899H25.3087L24.7095 21.7643H34V15.1959H17.5312L17.6885 16.9597L19.3014 35.0583H34V28.4899ZM34 45.5473L33.9702 45.5558L26.656 43.5817L26.1885 38.3436H19.5946L20.5148 48.6541L33.9702 52.3898L34 52.3813V45.5473Z" fill="#EBEBEB"/>
<path d="M33.9767 28.4899V35.0583H42.0644L41.3037 43.5774L33.9767 45.5537V52.3877L47.4428 48.654L47.5406 47.5448L49.0833 30.2537L49.2448 28.4899H33.9767ZM33.9767 15.1959V21.7643H49.8419L49.9737 20.2895L50.2733 16.9597L50.4306 15.1959H33.9767Z" fill="white"/>
</svg>
