<svg width="61" height="61" viewBox="0 0 61 61" fill="none" xmlns="http://www.w3.org/2000/svg">
<g opacity="0.783">
<path d="M25.4337 4.09013L4.2118 25.7857C-3.79378 33.7913 9.42254 33.1281 14.2069 36.1598C16.4333 37.5809 7.10139 39.4284 8.9962 41.3706C10.8436 43.2654 20.1756 45.0181 22.023 46.8655C23.8705 48.7603 18.2808 50.7499 20.1282 52.6921C21.9283 54.5869 26.239 52.7868 26.9969 57.0975C27.5654 60.2713 34.9078 58.7081 38.2237 55.9606C40.2606 54.2079 34.6709 54.2079 36.5184 52.3131C41.1606 47.6234 45.2819 50.1814 46.9398 45.8707C47.8872 43.5496 39.929 41.8916 42.0607 40.4232C47.1293 36.8704 65.6037 35.0703 57.0771 26.5437L35.1446 4.09013C32.3971 1.53213 27.9443 1.53213 25.4337 4.09013ZM49.7347 45.8707C49.7347 46.9603 58.1192 47.5761 57.6455 45.6339C56.9823 42.318 50.6347 42.6022 49.7347 45.8707ZM14.0175 51.6026C15.9123 53.2605 18.8019 51.2236 19.7019 48.9498C17.8545 46.4866 11.0331 49.0446 14.0175 51.6026ZM48.6925 48.1445C46.324 50.3236 49.1189 52.55 51.44 51.0815C52.0558 50.6551 51.3926 48.6656 48.6925 48.1445Z" fill="black"/>
<path opacity="0.576" d="M25.4337 4.56388L4.2118 26.2595C-3.79378 34.3124 9.42253 33.6493 14.2069 36.681C16.4333 38.1021 7.10139 39.9495 8.9962 41.8917C10.8436 43.7865 20.1756 45.5392 22.023 47.3866C23.8705 49.2815 18.2808 51.271 20.1282 53.2132C21.9283 55.108 26.239 53.3079 26.9969 57.6186C27.5654 60.7924 34.9078 59.2292 38.2237 56.4817C40.2606 54.729 34.6709 54.729 36.5184 52.8342C41.1606 48.1446 45.2819 50.7026 46.9398 46.3919C47.8872 44.0707 39.929 42.4128 42.0607 40.9443C47.0819 37.3915 65.6037 35.5914 57.0771 27.0648L35.1446 4.56388C32.3971 2.00589 27.9443 2.00589 25.4337 4.56388ZM49.7347 46.3919C49.7347 47.4814 58.1192 48.0972 57.6455 46.155C56.9823 42.8391 50.6347 43.0759 49.7347 46.3919ZM14.0175 52.0763C15.9123 53.7343 18.8019 51.6973 19.7019 49.4236C17.8544 47.0077 11.0331 49.5657 14.0175 52.0763ZM48.6925 48.6656C46.324 50.8447 49.1189 53.0711 51.44 51.6026C52.0558 51.1763 51.3926 49.1393 48.6925 48.6656Z" fill="black"/>
</g>
<path d="M25.4337 3.57475L4.2118 25.2703C-3.79378 33.2759 9.42253 32.6127 14.2069 35.6444C16.4333 37.0656 7.10139 38.913 8.9962 40.8552C10.8436 42.75 20.1756 44.5027 22.023 46.3501C23.8705 48.245 18.2808 50.2345 20.1282 52.1767C21.9283 54.0715 26.239 52.2714 26.9969 56.5821C27.5654 59.7559 34.9078 58.1927 38.2237 55.4452C40.2606 53.6925 34.6709 53.6925 36.5184 51.7977C41.1606 47.1081 45.2819 49.6661 46.9398 45.3554C47.8872 43.0342 39.929 41.3763 42.0607 39.9078C47.0819 36.355 65.6037 34.5549 57.0771 26.0283L35.1446 3.57475C32.3971 1.01675 27.9443 1.01675 25.4337 3.57475ZM49.7347 45.3554C49.7347 46.4449 58.1192 47.0607 57.6455 45.1185C56.9823 41.85 50.6347 42.0868 49.7347 45.3554ZM14.0175 51.0872C15.9123 52.7451 18.8019 50.7082 19.7019 48.4344C17.8544 45.9712 11.0331 48.5765 14.0175 51.0872ZM48.6925 47.6291C46.324 49.8082 49.1189 52.0346 51.44 50.5661C52.0558 50.1398 51.3926 48.1502 48.6925 47.6291Z" fill="black"/>
<mask id="mask0_277_337" style="mask-type:luminance" maskUnits="userSpaceOnUse" x="2" y="2" width="57" height="56">
<path d="M25.54 4.05719L4.74384 25.3698C-3.14275 33.2563 9.81379 32.5991 14.5082 35.5566C16.6676 36.9649 7.56048 38.7957 9.39129 40.6735C11.2221 42.5512 20.3292 44.2412 22.1601 46.072C23.9909 47.9498 18.4984 49.9215 20.2823 51.7523C22.0662 53.63 26.2911 51.8462 27.0422 56.0711C27.6056 59.2164 34.8349 57.6203 38.0271 54.9445L36.3841 51.3767C40.9376 46.7762 44.9748 49.3112 46.6179 45.0862C47.5098 42.8329 39.764 41.1899 41.8296 39.7346C46.7587 36.2608 64.926 34.4769 56.57 26.1209L35.0227 4.05719C32.3938 1.56915 27.9811 1.56915 25.54 4.05719ZM20.517 36.7302C20.9865 36.7302 36.0555 38.7488 30.2344 40.2979C28.0281 40.9082 17.8412 36.7302 20.517 36.7302ZM49.3876 45.0862C49.3876 46.1659 57.6028 46.7293 57.1803 44.8515C56.5231 41.6124 50.2795 41.894 49.3876 45.0862ZM14.3204 50.7195C16.1982 52.3156 19.0148 50.3439 19.9067 48.0906C18.1229 45.6965 11.4099 48.2315 14.3204 50.7195ZM48.4017 47.3395C46.1015 49.452 48.8242 51.6584 51.0775 50.2031C51.6409 49.7806 50.9837 47.809 48.4017 47.3395Z" fill="white"/>
</mask>
<g mask="url(#mask0_277_337)">
<path d="M25.54 4.05719L4.74384 25.3698C-3.14275 33.2563 9.81379 32.5991 14.5082 35.5566C16.6676 36.9649 7.56048 38.7957 9.39129 40.6735C11.2221 42.5512 20.3292 44.2412 22.1601 46.072C23.9909 47.9498 18.4984 49.9215 20.2823 51.7523C22.0662 53.63 26.2911 51.8462 27.0422 56.0711C27.6056 59.2164 34.8349 57.6203 38.0271 54.9445L36.3841 51.3767C40.9376 46.7762 44.9748 49.3112 46.6179 45.0862C47.5098 42.8329 39.764 41.1899 41.8296 39.7346C46.7587 36.2608 64.926 34.4769 56.57 26.1209L35.0227 4.05719C32.3938 1.56915 27.9811 1.56915 25.54 4.05719ZM20.517 36.7302C20.9865 36.7302 36.0555 38.7488 30.2344 40.2979C28.0281 40.9082 17.8412 36.7302 20.517 36.7302ZM49.3876 45.0862C49.3876 46.1659 57.6028 46.7293 57.1803 44.8515C56.5231 41.6124 50.2795 41.894 49.3876 45.0862ZM14.3204 50.7195C16.1982 52.3156 19.0148 50.3439 19.9067 48.0906C18.1229 45.6965 11.4099 48.2315 14.3204 50.7195ZM48.4017 47.3395C46.1015 49.452 48.8242 51.6584 51.0775 50.2031C51.6409 49.7806 50.9837 47.809 48.4017 47.3395Z" fill="url(#paint0_linear_277_337)"/>
</g>
<path opacity="0.505" d="M6.10658 26.4546C0.327399 32.1391 10.4646 30.5759 18.2334 33.6076L34.3393 5.32748C31.9234 2.81685 28.797 3.0537 26.5706 5.32748L6.10658 26.4546Z" fill="url(#paint1_linear_277_337)"/>
<path d="M33.8656 5.13799L42.2502 13.6646C43.0081 14.4226 43.0081 16.0332 42.5818 16.5069L38.4132 13.0962L37.6079 18.0701L34.1499 16.2226L28.5602 19.7754L26.7127 12.3383L23.7284 18.828L16.1965 18.7333C14.7754 18.7333 14.9649 17.2648 16.4334 15.7489C19.3703 12.5278 25.0548 6.98543 26.8548 5.09062C28.7496 3.1958 31.9708 3.29054 33.8656 5.13799Z" fill="url(#paint2_linear_277_337)"/>
<path opacity="0.217" d="M22.3546 45.4501C22.3546 45.4501 23.2547 46.8238 23.1599 47.487C22.9705 48.766 20.223 49.4292 20.8388 50.5661C21.4546 51.703 23.6336 51.0398 25.4337 52.224C27.2338 53.4083 26.7601 55.7768 28.0865 56.3926C30.6444 57.5769 37.4658 54.3557 37.0868 54.4504C36.7552 54.4978 30.4076 55.8242 28.9865 54.6873C27.3759 53.3609 26.9022 52.4609 25.6706 51.6556C24.5337 50.945 22.9705 50.6134 22.5915 50.045C22.2125 49.4292 23.3494 48.6713 23.3968 47.5344C23.4915 46.7764 22.3546 45.4501 22.3546 45.4501Z" fill="url(#paint3_radial_277_337)"/>
<g opacity="0.276">
<path d="M22.3546 45.4501C22.3546 45.4501 23.2547 46.8238 23.1599 47.487C22.9705 48.766 20.223 49.4292 20.8388 50.5661C21.4546 51.703 23.6336 51.0398 25.4337 52.224C27.2338 53.4083 26.7601 55.7768 28.0865 56.3926C30.6444 57.5769 37.4658 54.3557 37.0868 54.4504C25.8127 54.4978 27.9443 51.6082 23.5863 49.666C22.9705 49.3818 23.302 48.6239 23.3968 47.487C23.4915 46.7764 22.3546 45.4501 22.3546 45.4501Z" fill="url(#paint4_radial_277_337)"/>
</g>
<path opacity="0.453" d="M41.4922 39.5288C51.5821 35.834 54.8507 35.3129 58.1666 31.9496C54.2822 35.2181 46.1345 36.9708 39.5027 39.8604L41.4922 39.5288Z" fill="url(#paint5_radial_277_337)"/>
<g opacity="0.512">
<path d="M41.4922 39.0551C58.1192 33.1812 55.3244 33.1812 58.1666 31.4758C52.8611 33.5128 43.0081 33.7022 39.5027 39.3867L41.4922 39.0551Z" fill="url(#paint6_radial_277_337)"/>
</g>
<path opacity="0.286" d="M55.9876 43.7447C55.9876 44.1237 55.0402 44.4079 53.8086 44.4079C52.6243 44.4079 51.6295 44.1237 51.6295 43.7447C51.6295 43.3658 52.5769 43.0815 53.8086 43.0815C55.0402 43.0815 55.9876 43.3658 55.9876 43.7447Z" fill="url(#paint7_linear_277_337)"/>
<g opacity="0.621">
<path d="M56.7455 44.5027C56.7455 45.3079 55.4191 45.9238 53.8559 45.9238C52.2453 45.9238 50.9663 45.2606 50.9663 44.5027C50.9663 43.6974 52.2927 43.0815 53.8559 43.0815C55.4665 43.0815 56.7455 43.7447 56.7455 44.5027Z" fill="url(#paint8_linear_277_337)"/>
</g>
<path d="M49.8768 45.308C50.919 46.2554 56.6034 46.7291 57.5508 45.0238C55.7034 46.3502 51.6295 45.8765 49.8768 45.308Z" fill="url(#paint9_radial_277_337)"/>
<path opacity="0.286" d="M49.8768 48.4818C50.0663 48.9081 49.9715 49.3818 49.5926 49.5713C49.2136 49.7608 48.7399 49.5713 48.5504 49.1923C48.3609 48.766 48.4557 48.2923 48.8347 48.1028C49.2136 47.866 49.6873 48.0554 49.8768 48.4818Z" fill="url(#paint10_linear_277_337)"/>
<g opacity="0.621">
<path d="M50.3031 48.6712C50.6347 49.2871 50.4452 49.9976 49.8768 50.2818C49.3083 50.5661 48.6451 50.2818 48.3136 49.666C47.982 49.0502 48.1714 48.3397 48.7399 48.0554C49.3083 47.7712 49.9715 48.0554 50.3031 48.6712Z" fill="url(#paint11_linear_277_337)"/>
</g>
<path d="M48.4557 50.3766C49.261 51.0398 52.3874 51.0872 51.2032 49.2397C51.5348 50.7082 49.4031 50.5661 48.4557 50.3766Z" fill="url(#paint12_radial_277_337)"/>
<path d="M10.1331 40.6657C10.1331 40.5236 20.744 43.8869 22.5441 45.7344C21.0756 44.2659 13.4963 40.95 12.3595 40.9026C11.2226 40.8552 10.2752 40.7605 10.1331 40.6657Z" fill="url(#paint13_radial_277_337)"/>
<path opacity="0.286" d="M18.1065 47.9516C18.1952 48.2154 17.4289 48.5961 16.3463 48.8338C15.2637 49.0715 14.3645 49.0565 14.2758 48.7928C14.1871 48.529 14.9534 48.1483 16.036 47.9106C17.1186 47.6729 18.0179 47.6879 18.1065 47.9516Z" fill="url(#paint14_linear_277_337)"/>
<g opacity="0.621">
<path d="M18.9502 48.3328C19.1386 48.8933 18.1168 49.5779 16.7427 49.8796C15.3687 50.1813 14.0476 49.9757 13.8703 49.4482C13.6818 48.8877 14.7036 48.2031 16.0777 47.9014C17.4517 47.5997 18.7617 47.7723 18.9502 48.3328Z" fill="url(#paint15_linear_277_337)"/>
</g>
<g opacity="0.616">
<path d="M13.5437 49.666C13.5437 49.666 14.1121 51.1819 15.6754 51.2766C17.286 51.3714 19.086 49.3818 19.2281 48.6713C18.9439 49.2871 17.4281 51.1345 15.4859 51.0872C14.349 51.0872 13.5437 49.666 13.5437 49.666Z" fill="url(#paint16_radial_277_337)"/>
</g>
<path d="M30.2181 2.3905C28.6075 2.3905 27.0443 2.95895 25.9548 4.09583L4.78023 25.7914C2.83805 27.7336 2.36434 29.0126 2.50645 29.7232C2.55382 30.1021 2.74331 30.3864 3.12227 30.7179C3.50123 31.0495 4.06967 31.3811 4.73286 31.6654C6.1066 32.2338 7.90667 32.7075 9.70674 33.1812C11.5068 33.6549 13.2595 34.176 14.5859 35.0286C14.7754 35.1708 14.9648 35.3129 15.107 35.5497C15.2491 35.7866 15.2964 36.0708 15.2491 36.355C15.1543 36.8761 14.8227 37.1603 14.4911 37.3972C13.828 37.9182 12.9279 38.2972 12.0279 38.7235C11.1279 39.1499 10.2278 39.6236 9.75411 39.9552C9.51726 40.1446 9.42252 40.2867 9.46989 40.2867C9.46989 40.2867 9.42252 40.1446 9.51726 40.2394C9.80148 40.5236 10.7015 41.0447 11.8384 41.471C12.9753 41.8973 14.349 42.371 15.7228 42.7974C17.0965 43.2711 18.5176 43.6974 19.7019 44.1711C20.8861 44.6448 21.8809 45.0712 22.4967 45.7343C22.8283 46.0659 23.0652 46.4923 23.1125 46.8712C23.1599 47.2976 23.0652 47.6765 22.8757 48.0081C22.5441 48.6713 22.023 49.1924 21.5967 49.6661C21.123 50.1398 20.6967 50.6135 20.5545 50.9451C20.4598 51.0872 20.4598 51.1819 20.4598 51.2767C20.4598 51.324 20.4598 51.4188 20.6019 51.5609C21.2177 52.2241 22.5441 52.3188 24.0599 52.6504C24.8179 52.8399 25.6232 53.0767 26.2863 53.6925C26.9495 54.3084 27.4706 55.161 27.7075 56.3927C27.8022 56.9137 28.0864 57.1506 28.7022 57.3401C29.3654 57.5295 30.3602 57.5769 31.4497 57.4348C33.6287 57.1032 36.2341 56.0611 37.7026 54.8294L37.7973 54.7347C37.7026 54.64 37.4657 54.4978 37.0868 54.3084C36.6131 54.0715 36.092 53.882 35.6657 53.361C35.4762 53.0767 35.3341 52.6978 35.3815 52.2714C35.4288 51.8451 35.6657 51.5135 35.9499 51.2293C38.4132 48.766 40.7817 48.1502 42.5817 47.6765C43.4818 47.4397 44.2397 47.2028 44.8081 46.8712C45.3766 46.4923 45.8503 46.0186 46.2293 45.0712C46.2766 44.9764 46.2766 44.929 46.2293 44.8343C46.1819 44.6922 46.0398 44.5027 45.8029 44.3132C45.3292 43.8869 44.5239 43.4606 43.7186 42.9869C42.9133 42.5605 42.1554 42.1342 41.587 41.6131C41.3027 41.3289 41.0185 41.0447 40.9711 40.5236C40.9238 40.0025 41.2554 39.5762 41.6343 39.292C43.0554 38.2972 45.1871 37.5393 47.5083 36.734C49.8294 35.9287 52.34 35.076 54.3296 34.1286C56.3665 33.1812 57.835 32.0917 58.3087 31.0022C58.5455 30.4337 58.5929 29.9127 58.3561 29.1547C58.1192 28.3968 57.5508 27.5441 56.5086 26.5494L34.6235 4.1432C33.3919 2.95895 31.7813 2.3905 30.2181 2.3905ZM53.8085 43.5553C52.4348 43.6027 51.2031 44.2185 50.6821 45.2133C50.8242 45.2606 50.9663 45.3554 51.2031 45.4027C51.9137 45.5449 52.9085 45.687 53.8559 45.687C54.8033 45.687 55.7981 45.6396 56.4139 45.4501C56.6507 45.3554 56.7928 45.308 56.8876 45.2606C56.7455 44.6922 56.4612 44.3132 55.8928 44.029C55.3717 43.65 54.5664 43.5079 53.8085 43.5553ZM17.5702 48.1976C16.4807 48.1028 15.1543 48.5292 14.4911 49.0976C14.1596 49.3818 14.0174 49.6187 14.0174 49.7608C14.0174 49.9029 14.0648 50.1398 14.4911 50.5187C15.2017 51.1345 15.9596 51.0398 16.8597 50.5661C17.6176 50.1398 18.2808 49.3818 18.7071 48.5766C18.4229 48.3871 18.0439 48.245 17.5702 48.1976ZM48.9294 48.5292C48.6925 48.8134 48.5978 49.0976 48.5504 49.2871C48.5504 49.5713 48.5978 49.7608 48.7872 49.9503C49.1662 50.3293 49.9715 50.4714 50.8242 49.9977C50.8242 49.9029 50.7768 49.7608 50.6347 49.5713C50.4452 49.1924 49.8294 48.766 48.9294 48.5292Z" stroke="url(#paint17_radial_277_337)" stroke-width="0.485072"/>
<g opacity="0.325">
<path d="M18.5649 36.355C17.2859 36.7339 13.1647 38.2972 13.7332 39.4814C14.3016 40.6183 23.9178 41.092 25.3863 44.5027C26.0495 45.9712 23.9178 47.108 24.4389 48.6239C24.8652 49.8082 28.039 52.7451 30.0759 54.1662C31.6865 55.2557 33.7708 53.2662 32.9182 51.6556C31.5918 49.0502 37.6078 45.8764 40.3079 44.4079C41.8711 43.5553 37.0394 39.3867 37.0394 39.3867L18.5649 36.355Z" fill="url(#paint18_linear_277_337)"/>
</g>
<path d="M19.0386 37.5393C20.1755 38.392 22.4493 37.8709 23.8231 38.4867C27.0916 39.9552 31.1181 41.6132 30.3602 38.6762L29.5549 39.3868V38.0604L27.6127 38.5341C27.6127 38.5341 26.0968 37.3498 25.4336 36.9235C25.2915 36.8288 24.5336 37.5867 24.5336 37.5867L24.3915 36.7814C23.4441 36.6867 22.4967 36.6393 21.644 36.6393C19.6545 36.6867 18.3281 36.9709 19.0386 37.5393Z" fill="url(#paint19_linear_277_337)"/>
<g opacity="0.478">
<path d="M40.4975 40.192C40.0711 41.8026 45.945 44.029 45.4713 45.1659C44.5239 47.6292 39.2185 45.9712 35.1446 51.1346C34.5762 51.8925 35.9499 54.5452 35.7604 54.2136C35.5709 53.882 34.1498 51.703 34.5288 50.6135C35.6657 47.2502 46.8451 45.9712 44.8081 44.3606C43.6239 43.4606 39.4079 40.9026 40.4975 40.192Z" fill="url(#paint20_radial_277_337)"/>
</g>
<path opacity="0.586" d="M53.7138 43.5553C53.7138 43.6975 53.4296 43.8396 53.0506 43.8396C52.6717 43.8396 52.3874 43.6975 52.3874 43.5553C52.3874 43.4132 52.6717 43.2711 53.0506 43.2711C53.4296 43.2711 53.7138 43.4132 53.7138 43.5553ZM49.4031 48.4819C49.4031 48.624 49.2136 48.7661 48.9768 48.7661C48.7399 48.7661 48.5504 48.624 48.5504 48.4819C48.5504 48.3397 48.7399 48.1976 48.9768 48.1976C49.2136 48.1976 49.4031 48.3397 49.4031 48.4819ZM16.8597 48.245C16.8597 48.3871 16.5281 48.5292 16.1492 48.5292C15.7702 48.5292 15.4386 48.3871 15.4386 48.245C15.4386 48.1029 15.7702 47.9608 16.1492 47.9608C16.5281 47.9608 16.8597 48.1029 16.8597 48.245Z" fill="white"/>
<path opacity="0.251" d="M16.4333 36.4971C12.7385 38.7708 7.05402 39.5761 13.3069 41.092C12.549 39.434 14.9175 39.6235 16.4333 36.4971Z" fill="url(#paint21_linear_277_337)"/>
<g opacity="0.363">
<path d="M29.5076 57.1979C29.5076 57.1979 35.192 56.6768 36.471 55.0189C37.2289 54.0715 33.4393 52.9346 34.2446 51.9872C37.3237 48.4818 39.929 48.6239 43.5292 47.108C47.1293 45.6396 45.803 44.929 44.6187 44.2658C42.6292 43.1763 38.1763 41.992 39.6448 39.3393C41.1133 36.6866 54.0454 32.9917 54.0454 32.9917C57.9771 31.6653 57.4561 29.2494 55.5612 27.2125L44.0503 15.7963C44.0503 15.7963 44.6187 26.6914 42.2976 31.3811C39.408 37.1129 24.1074 43.5553 30.5023 44.2658C32.7761 44.5027 33.8656 45.308 34.7657 47.0133C36.6605 50.6134 29.5076 57.1979 29.5076 57.1979Z" fill="url(#paint22_linear_277_337)"/>
</g>
<defs>
<linearGradient id="paint0_linear_277_337" x1="48.7992" y1="17.8908" x2="37.6984" y2="27.9281" gradientUnits="userSpaceOnUse">
<stop stop-color="#C0CDF9"/>
<stop offset="1" stop-color="#07092D" stop-opacity="0.288"/>
</linearGradient>
<linearGradient id="paint1_linear_277_337" x1="15.7509" y1="13.8896" x2="28.6434" y2="26.782" gradientUnits="userSpaceOnUse">
<stop stop-color="white"/>
<stop offset="1" stop-color="white" stop-opacity="0"/>
</linearGradient>
<linearGradient id="paint2_linear_277_337" x1="24.3581" y1="11.5155" x2="39.6898" y2="26.8472" gradientUnits="userSpaceOnUse">
<stop stop-color="white"/>
<stop offset="1" stop-color="white" stop-opacity="0"/>
</linearGradient>
<radialGradient id="paint3_radial_277_337" cx="0" cy="0" r="1" gradientUnits="userSpaceOnUse" gradientTransform="translate(20.75 55.8102) scale(13.0109 8.70014)">
<stop stop-color="white"/>
<stop offset="1" stop-color="white" stop-opacity="0"/>
</radialGradient>
<radialGradient id="paint4_radial_277_337" cx="0" cy="0" r="1" gradientUnits="userSpaceOnUse" gradientTransform="translate(27.6657 56.1221) scale(16.5979 11.1072)">
<stop stop-color="white"/>
<stop offset="1" stop-color="white" stop-opacity="0"/>
</radialGradient>
<radialGradient id="paint5_radial_277_337" cx="0" cy="0" r="1" gradientUnits="userSpaceOnUse" gradientTransform="translate(48.8362 35.9021) scale(9.26257 3.9269)">
<stop stop-color="white"/>
<stop offset="1" stop-color="white" stop-opacity="0"/>
</radialGradient>
<radialGradient id="paint6_radial_277_337" cx="0" cy="0" r="1" gradientUnits="userSpaceOnUse" gradientTransform="translate(50.8089 36.9921) scale(9.26257 3.9269)">
<stop stop-color="white"/>
<stop offset="1" stop-color="white" stop-opacity="0"/>
</radialGradient>
<linearGradient id="paint7_linear_277_337" x1="53.8315" y1="42.7234" x2="53.8653" y2="44.4305" gradientUnits="userSpaceOnUse">
<stop stop-color="white"/>
<stop offset="1" stop-color="white" stop-opacity="0"/>
</linearGradient>
<linearGradient id="paint8_linear_277_337" x1="53.8547" y1="42.4971" x2="53.8547" y2="45.0917" gradientUnits="userSpaceOnUse">
<stop stop-color="white"/>
<stop offset="1" stop-color="white" stop-opacity="0"/>
</linearGradient>
<radialGradient id="paint9_radial_277_337" cx="0" cy="0" r="1" gradientUnits="userSpaceOnUse" gradientTransform="translate(53.7254 45.6078) scale(3.81152 0.565206)">
<stop stop-color="white"/>
<stop offset="1" stop-color="white" stop-opacity="0"/>
</radialGradient>
<linearGradient id="paint10_linear_277_337" x1="48.7503" y1="48.0028" x2="49.5906" y2="49.4875" gradientUnits="userSpaceOnUse">
<stop stop-color="white"/>
<stop offset="1" stop-color="white" stop-opacity="0"/>
</linearGradient>
<linearGradient id="paint11_linear_277_337" x1="48.4291" y1="47.4646" x2="49.606" y2="49.7761" gradientUnits="userSpaceOnUse">
<stop stop-color="white"/>
<stop offset="1" stop-color="white" stop-opacity="0"/>
</linearGradient>
<radialGradient id="paint12_radial_277_337" cx="0" cy="0" r="1" gradientUnits="userSpaceOnUse" gradientTransform="translate(50.1532 50.8339) rotate(-26.9028) scale(1.6495 0.560636)">
<stop stop-color="white"/>
<stop offset="1" stop-color="white" stop-opacity="0"/>
</radialGradient>
<radialGradient id="paint13_radial_277_337" cx="0" cy="0" r="1" gradientUnits="userSpaceOnUse" gradientTransform="translate(16.0831 42.3823) scale(6.15245 2.50309)">
<stop stop-color="white" stop-opacity="0.33"/>
<stop offset="1" stop-color="white" stop-opacity="0"/>
</radialGradient>
<linearGradient id="paint14_linear_277_337" x1="15.9269" y1="47.6556" x2="15.9766" y2="48.553" gradientUnits="userSpaceOnUse">
<stop stop-color="white"/>
<stop offset="1" stop-color="white" stop-opacity="0"/>
</linearGradient>
<linearGradient id="paint15_linear_277_337" x1="15.9376" y1="47.4953" x2="15.8666" y2="48.8164" gradientUnits="userSpaceOnUse">
<stop stop-color="white"/>
<stop offset="1" stop-color="white" stop-opacity="0"/>
</linearGradient>
<radialGradient id="paint16_radial_277_337" cx="0" cy="0" r="1" gradientUnits="userSpaceOnUse" gradientTransform="translate(16.1475 51.2511) rotate(-15.4957) scale(3.48549 1.30205)">
<stop stop-color="white"/>
<stop offset="1" stop-color="white" stop-opacity="0"/>
</radialGradient>
<radialGradient id="paint17_radial_277_337" cx="0" cy="0" r="1" gradientUnits="userSpaceOnUse" gradientTransform="translate(32.7893 8.38688) scale(48.1925 47.4324)">
<stop stop-color="white"/>
<stop offset="1" stop-color="white" stop-opacity="0"/>
</radialGradient>
<linearGradient id="paint18_linear_277_337" x1="19.2558" y1="43.0688" x2="33.7187" y2="46.8929" gradientUnits="userSpaceOnUse">
<stop stop-color="white"/>
<stop offset="1" stop-color="white" stop-opacity="0"/>
</linearGradient>
<linearGradient id="paint19_linear_277_337" x1="25.5803" y1="36.2732" x2="23.9546" y2="39.9982" gradientUnits="userSpaceOnUse">
<stop stop-color="#EEEEEC"/>
<stop offset="1" stop-color="#EEEEEC" stop-opacity="0"/>
</linearGradient>
<radialGradient id="paint20_radial_277_337" cx="0" cy="0" r="1" gradientUnits="userSpaceOnUse" gradientTransform="translate(40.1093 47.045) scale(7.57762 9.63374)">
<stop stop-color="white"/>
<stop offset="1" stop-color="white" stop-opacity="0"/>
</radialGradient>
<linearGradient id="paint21_linear_277_337" x1="13.1032" y1="37.9485" x2="15.3812" y2="39.7583" gradientUnits="userSpaceOnUse">
<stop stop-color="white"/>
<stop offset="1" stop-color="white" stop-opacity="0"/>
</linearGradient>
<linearGradient id="paint22_linear_277_337" x1="44.3306" y1="46.2046" x2="37.5698" y2="28.0011" gradientUnits="userSpaceOnUse">
<stop stop-color="#729FCF"/>
<stop offset="1" stop-color="#729FCF" stop-opacity="0"/>
</linearGradient>
</defs>
</svg>
