<svg width="145" height="145" viewBox="0 0 145 145" fill="none" xmlns="http://www.w3.org/2000/svg">
<rect y="12" width="142" height="126" fill="white"/>
<path d="M0 0V145H145V0H0ZM78.9111 113.084C78.9111 127.196 70.6254 133.638 58.5541 133.638C47.648 133.638 41.3354 128.009 38.0988 121.179L49.2016 114.478C51.3404 118.263 53.2823 121.469 57.9741 121.469C62.438 121.469 65.2862 119.718 65.2862 112.893V66.5757H78.9111V113.084ZM111.142 133.638C98.4861 133.638 90.2987 127.621 86.3164 119.718L97.4193 113.312C100.335 118.071 104.151 121.598 110.852 121.598C116.482 121.598 120.112 118.781 120.112 114.866C120.112 110.205 116.419 108.553 110.174 105.803L106.777 104.348C96.9377 100.174 90.4334 94.8973 90.4334 83.7945C90.4334 73.5668 98.2323 65.7989 110.371 65.7989C119.045 65.7989 125.259 68.8077 129.728 76.705L119.112 83.5045C116.782 79.3305 114.255 77.6786 110.34 77.6786C106.363 77.6786 103.836 80.2057 103.836 83.5045C103.836 87.5852 106.363 89.232 112.22 91.7902L115.617 93.2454C127.206 98.1961 133.711 103.281 133.711 114.669C133.711 126.906 124.063 133.633 111.148 133.633L111.142 133.638Z" fill="#FFAE00"/>
</svg>
