<svg width="57" height="63" viewBox="0 0 57 63" fill="none" xmlns="http://www.w3.org/2000/svg">
<path d="M0 3.9375V59.0625H57V3.9375H0ZM31.0192 46.9301C31.0192 52.2949 27.7621 54.7436 23.0163 54.7436C18.7286 54.7436 16.2475 52.6025 14.9752 50.0062L19.3393 47.4592C20.179 48.8988 20.9424 50.117 22.7873 50.117C24.5431 50.117 25.6627 49.4525 25.6627 46.8562V29.2482H31.0192V46.9301ZM43.6915 54.7436C38.7167 54.7436 35.4978 52.4549 33.9328 49.4525L38.2969 47.0162C39.442 48.825 40.9433 50.1662 43.577 50.1662C45.7909 50.1662 47.2159 49.0957 47.2159 47.6068C47.2159 45.835 45.7654 45.2074 43.3098 44.1615L41.9739 43.6078C38.106 42.0205 35.5487 40.0148 35.5487 35.7943C35.5487 31.9061 38.615 28.9529 43.3862 28.9529C46.796 28.9529 49.2388 30.0973 50.9946 33.0996L46.8214 35.6836C45.9054 34.0963 44.9129 33.4688 43.3734 33.4688C41.8085 33.4688 40.8161 34.4285 40.8161 35.6836C40.8161 37.234 41.8085 37.8615 44.1114 38.8336L45.4473 39.3873C50.0022 41.2699 52.5596 43.2018 52.5596 47.533C52.5596 52.1842 48.7681 54.7436 43.6915 54.7436Z" fill="#FFAE00"/>
</svg>
