<svg width="60" height="68" viewBox="0 0 60 68" fill="none" xmlns="http://www.w3.org/2000/svg">
<g clip-path="url(#clip0_277_428)">
<path d="M30 67.874C29.0684 67.874 28.1988 67.6246 27.3914 67.1881L19.1304 62.262C17.8882 61.5761 18.5093 61.3267 18.882 61.202C20.5589 60.6408 20.8695 60.5161 22.6085 59.5182C22.7951 59.3935 23.0435 59.4559 23.2296 59.5806L29.5652 63.3844C29.8137 63.5091 30.1242 63.5091 30.3105 63.3844L55.0934 48.9804C55.3418 48.8556 55.466 48.6062 55.466 48.2945V19.5484C55.466 19.2366 55.3418 18.9872 55.0934 18.8625L30.3105 4.5206C30.0621 4.39589 29.7516 4.39589 29.5652 4.5206L4.78242 18.8627C4.53398 18.9874 4.40977 19.2992 4.40977 19.5486V48.2945C4.40977 48.5439 4.53398 48.8556 4.78242 48.9804L11.5528 52.9086C15.2175 54.7792 17.5153 52.5968 17.5153 50.4145V22.0425C17.5153 21.6684 17.8261 21.2942 18.2609 21.2942H21.4287C21.8013 21.2942 22.174 21.606 22.174 22.0425V50.4142C22.174 55.3404 19.503 58.2086 14.8446 58.2086C13.4161 58.2086 12.2981 58.2086 9.13055 56.6498L2.60859 52.9086C0.99375 51.9731 0 50.2272 0 48.3566V19.6109C0 17.7404 0.99375 15.9945 2.60859 15.0589L27.3914 0.65495C28.9441 -0.217991 31.0559 -0.217991 32.6086 0.65495L57.3914 15.0589C59.0062 15.9942 60 17.7401 60 19.6109V48.3568C60 50.2274 59.0062 51.9733 57.3914 52.9086L32.6086 67.3131C31.8012 67.6872 30.8695 67.8742 30 67.8742M37.6397 48.1074C26.7701 48.1074 24.5341 43.1192 24.5341 38.8789C24.5341 38.5048 24.8447 38.1307 25.2795 38.1307H28.5091C28.8818 38.1307 29.1926 38.3801 29.1926 38.7542C29.6895 42.0589 31.118 43.6804 37.7018 43.6804C42.9192 43.6804 45.1554 42.4957 45.1554 39.6898C45.1554 38.0684 44.5343 36.8837 36.3975 36.0728C29.6273 35.3869 25.4037 33.8905 25.4037 28.4658C25.4037 23.4147 29.6271 20.4218 36.708 20.4218C44.6583 20.4218 48.5714 23.1653 49.0683 29.1514C49.0683 29.3386 49.0062 29.5256 48.882 29.7126C48.7577 29.8373 48.5714 29.962 48.3851 29.962H45.1554C44.8446 29.962 44.5343 29.7126 44.472 29.4008C43.7266 25.9714 41.8013 24.8491 36.708 24.8491C30.994 24.8491 30.3105 26.8444 30.3105 28.3408C30.3105 30.1493 31.118 30.7102 38.8198 31.7079C46.4597 32.7055 50.062 34.1399 50.062 39.5025C49.9999 44.9898 45.528 48.1074 37.6397 48.1074Z" fill="#539E43"/>
</g>
<defs>
<clipPath id="clip0_277_428">
<rect width="60" height="68" fill="white"/>
</clipPath>
</defs>
</svg>
