<svg width="56" height="36" viewBox="0 0 56 36" fill="none" xmlns="http://www.w3.org/2000/svg">
<path d="M18.192 36H38.7634C48.541 35.7581 56.2353 27.4574 55.9945 17.5773C55.7565 7.94196 48.1266 0.247345 38.7634 0.00546509H18.192C8.41444 -0.236415 0.244104 7.58057 0.00610604 17.5175C-0.0549607 19.8776 0.342526 22.2268 1.17582 24.4306C2.00911 26.6344 3.26185 28.6495 4.86233 30.3607C6.46281 32.0718 8.37962 33.4454 10.5031 34.4028C12.6265 35.3603 14.9149 35.8827 17.2372 35.9402C17.5368 36 17.8364 36 18.192 36ZM38.2818 29.6371H18.6092C12.2896 29.455 7.33925 24.0597 7.52125 17.6399C7.75645 11.5189 12.5892 6.55044 18.6092 6.36832H38.2846C44.607 6.1862 49.9129 11.2145 50.0921 17.6371C50.2713 24.0625 45.321 29.455 39.0014 29.6371H38.2818Z" fill="#EA1B22"/>
</svg>
