<svg width="74" height="74" viewBox="0 0 74 74" fill="none" xmlns="http://www.w3.org/2000/svg">
<path d="M36.648 7.0809C34.2072 7.09247 31.8774 7.30001 29.8262 7.66308C23.7848 8.73029 22.6886 10.9642 22.6886 15.0845V20.5252H36.9643V22.3388H17.3306C13.1819 22.3388 9.54901 24.8322 8.41241 29.5775C7.10123 35.0147 7.04341 38.4083 8.41241 44.0861C9.42702 48.3128 11.8505 51.3237 15.9997 51.3237H20.9086V44.8012C20.9086 40.089 24.9849 35.9328 29.8267 35.9328H44.0862C48.0556 35.9328 51.2237 32.6641 51.2237 28.6785V15.085C51.2237 11.2157 47.9596 8.30942 44.0862 7.66365C41.6326 7.2555 39.0883 7.06992 36.648 7.0809ZM28.9278 11.4567C30.402 11.4567 31.6068 12.6806 31.6068 14.1861C31.6068 15.6851 30.4026 16.8975 28.9278 16.8975C27.4478 16.8975 26.2493 15.6851 26.2493 14.1861C26.2487 12.6806 27.4478 11.4567 28.9278 11.4567Z" fill="url(#paint0_linear_742_615)"/>
<path d="M53.0036 22.3387V28.6784C53.0036 33.5925 48.8365 37.729 44.0855 37.729H29.826C25.9202 37.729 22.6885 41.0723 22.6885 44.9839V58.5785C22.6885 62.4467 26.052 64.7228 29.826 65.8322C34.3446 67.1602 38.6783 67.4007 44.0855 65.8322C47.6791 64.791 51.223 62.697 51.223 58.5785V53.1372H36.9641V51.323H58.3617C62.5103 51.323 64.0574 48.4295 65.5004 44.0855C66.9908 39.6137 66.9266 35.313 65.5004 29.5768C64.4748 25.4461 62.5167 22.3381 58.3617 22.3381L53.0036 22.3387ZM44.9833 56.7643C46.4639 56.7643 47.6623 57.9767 47.6623 59.4769C47.6623 60.9812 46.4633 62.2051 44.9833 62.2051C43.5091 62.2051 42.3048 60.9812 42.3048 59.4769C42.3048 57.9767 43.5091 56.7643 44.9833 56.7643Z" fill="url(#paint1_linear_742_615)"/>
<path opacity="0.444" d="M56.2567 69.142C56.2567 71.1903 47.6912 72.8512 37.1259 72.8512C26.5601 72.8512 17.9946 71.1903 17.9946 69.142C17.9946 67.0937 26.5596 65.4321 37.1259 65.4321C47.6912 65.4321 56.2567 67.0925 56.2567 69.142Z" fill="url(#paint2_radial_742_615)"/>
<defs>
<linearGradient id="paint0_linear_742_615" x1="5.97612" y1="8.78211" x2="38.9025" y2="36.8616" gradientUnits="userSpaceOnUse">
<stop stop-color="#5A9FD4"/>
<stop offset="1" stop-color="#306998"/>
</linearGradient>
<linearGradient id="paint1_linear_742_615" x1="51.2906" y1="54.3162" x2="39.4826" y2="37.7574" gradientUnits="userSpaceOnUse">
<stop stop-color="#FFD43B"/>
<stop offset="1" stop-color="#FFE873"/>
</linearGradient>
<radialGradient id="paint2_radial_742_615" cx="0" cy="0" r="1" gradientUnits="userSpaceOnUse" gradientTransform="translate(37.0486 69.0357) rotate(-90) scale(3.71059 16.3111)">
<stop stop-color="#B8B8B8" stop-opacity="0.498"/>
<stop offset="1" stop-color="#7F7F7F" stop-opacity="0"/>
</radialGradient>
</defs>
</svg>
