<svg width="68" height="60" viewBox="0 0 68 60" fill="none" xmlns="http://www.w3.org/2000/svg">
<g clip-path="url(#clip0_277_390)">
<path d="M55.9095 19.4273C55.1859 19.1814 54.456 18.9535 53.7208 18.7439C53.8443 18.2439 53.958 17.75 54.0589 17.2647C55.7159 9.29601 54.6327 2.87627 50.9328 0.762586C47.3854 -1.26373 41.5839 0.849165 35.7247 5.90101C35.1472 6.39976 34.5826 6.91291 34.0313 7.43995C33.6623 7.0895 33.2867 6.74585 32.9048 6.40916C26.7641 1.00759 20.609 -1.26899 16.9131 0.850744C13.3689 2.88338 12.3194 8.91838 13.8112 16.4705C13.9596 17.2184 14.1272 17.9625 14.3137 18.7021C13.4425 18.9473 12.6018 19.2084 11.7972 19.4863C4.5977 21.9731 0 25.8702 0 29.9126C0 34.0876 4.93584 38.2752 12.4344 40.8144C13.0424 41.0194 13.6554 41.2094 14.2728 41.3842C14.0724 42.1807 13.8943 42.9826 13.7389 43.7889C12.3168 51.21 13.4273 57.1023 16.962 59.1221C20.6128 61.2079 26.7402 59.0642 32.7064 53.8971C33.1902 53.4769 33.6633 53.045 34.1254 52.6015C34.7224 53.1722 35.3353 53.7263 35.9635 54.2631C41.743 59.19 47.4507 61.1794 50.9819 59.1542C54.6292 57.0623 55.8147 50.7323 54.2757 43.031C54.1544 42.4277 54.0185 41.8273 53.868 41.2305C54.2983 41.1042 54.7206 40.9742 55.1323 40.8389C62.9279 38.2802 68 34.1434 68 29.9126C68 25.8555 63.2538 21.9321 55.9095 19.4273ZM54.2188 38.1073C53.8466 38.2291 53.4659 38.3471 53.0767 38.4613C52.216 35.7621 51.0547 32.8921 49.6334 29.9265C50.9896 27.0318 52.1063 24.1984 52.9428 21.5168C53.6385 21.7163 54.3134 21.9265 54.9642 22.1484C61.2568 24.2947 65.0951 27.4676 65.0951 29.9126C65.0951 32.5168 60.9498 35.8976 54.2188 38.1073ZM51.4261 43.59C52.1066 46.9952 52.2035 50.0742 51.7528 52.4813C51.348 54.6442 50.5336 56.086 49.5263 56.6636C47.3835 57.8926 42.8007 56.2952 37.8582 52.0815C37.2739 51.5824 36.7038 51.0673 36.1484 50.5368C38.0646 48.4607 39.9795 46.0473 41.8484 43.3668C45.1358 43.0779 48.2415 42.6052 51.0579 41.9602C51.1969 42.515 51.3196 43.0582 51.4261 43.59ZM23.1827 56.4513C21.089 57.1836 19.4214 57.2047 18.4134 56.6289C16.2685 55.4034 15.3768 50.6721 16.5931 44.3257C16.7377 43.5758 16.9032 42.83 17.0895 42.0892C19.8749 42.6997 22.958 43.1386 26.253 43.4034C28.1347 46.0263 30.1049 48.4371 32.0904 50.5481C31.6684 50.9526 31.2365 51.3468 30.795 51.7302C28.1565 54.015 25.5128 55.636 23.1827 56.4513ZM13.3742 38.0913C10.0584 36.9684 7.32009 35.5092 5.44319 33.9168C3.75647 32.486 2.90514 31.0652 2.90514 29.9126C2.90514 27.4594 6.59653 24.3305 12.7535 22.2039C13.5007 21.946 14.2827 21.7026 15.0941 21.4742C15.9452 24.2163 17.0614 27.0834 18.4083 29.9826C17.0438 32.9247 15.9117 35.8376 15.0524 38.6121C14.4888 38.4521 13.9292 38.2784 13.3742 38.0913ZM16.6621 15.9176C15.3842 9.44732 16.2329 4.56653 18.3688 3.34153C20.6436 2.0368 25.674 3.89706 30.9761 8.56127C31.3219 8.86609 31.662 9.17711 31.9964 9.49416C30.0207 11.596 28.0686 13.9889 26.2036 16.5963C23.0055 16.89 19.9442 17.3615 17.1296 17.9934C16.9562 17.3055 16.8003 16.6132 16.6621 15.9176ZM45.9943 23.0936C45.3295 21.956 44.64 20.8327 43.9264 19.7244C46.096 19.9963 48.1748 20.3571 50.1269 20.7981C49.5409 22.6592 48.8105 24.6047 47.9506 26.5994C47.3221 25.418 46.6699 24.2492 45.9943 23.0936ZM34.0327 11.5513C35.3725 12.9894 36.7144 14.595 38.0343 16.3371C35.3568 16.2118 32.6748 16.2112 29.9973 16.3355C31.3185 14.6094 32.6719 13.006 34.0327 11.5513ZM21.9943 23.1131C21.3271 24.2594 20.687 25.4209 20.0746 26.5968C19.2289 24.6092 18.505 22.6547 17.914 20.7673C19.8541 20.3373 21.9231 19.9857 24.0789 19.7189C23.3574 20.8339 22.6623 21.9658 21.9943 23.1131ZM24.1408 40.3107C21.9135 40.0644 19.8135 39.731 17.8739 39.3126C18.4742 37.3915 19.214 35.3955 20.0781 33.3652C20.6929 34.542 21.3356 35.7042 22.0057 36.851C22.6947 38.03 23.4082 39.1847 24.1408 40.3107ZM34.1129 48.4765C32.7359 47.005 31.3626 45.3768 30.0215 43.6257C31.3236 43.6763 32.6509 43.7021 34 43.7021C35.386 43.7021 36.7561 43.6713 38.1047 43.6118C36.7806 45.3944 35.4437 47.025 34.1129 48.4765ZM47.978 33.2615C48.887 35.3142 49.653 37.2997 50.2613 39.1879C48.2898 39.6336 46.1611 39.9926 43.9182 40.2592C44.6369 39.1304 45.3329 37.9875 46.0057 36.8313C46.6898 35.656 47.3474 34.4658 47.978 33.2615ZM43.4895 35.3934C42.4593 37.1661 41.3714 38.9051 40.2273 40.6079C38.1548 40.7534 36.0777 40.8256 34 40.8244C31.8838 40.8244 29.8254 40.7592 27.8433 40.6318C26.6693 38.9331 25.5606 37.191 24.5196 35.4092C23.4833 33.6369 22.5158 31.8262 21.6184 29.981C22.5135 28.1354 23.4784 26.3239 24.5111 24.5502L24.5108 24.5505C25.543 22.7763 26.6428 21.0416 27.808 19.3502C29.8302 19.1986 31.904 19.1197 33.9997 19.1197C36.1051 19.1197 38.1817 19.1994 40.2034 19.3521C41.3568 21.0409 42.4497 22.7696 43.4799 24.535C44.5159 26.3048 45.4935 28.1075 46.4113 29.9402C45.5029 31.7917 44.5283 33.6105 43.4895 35.3934ZM49.482 3.25548C51.7589 4.55653 52.6445 9.80311 51.2138 16.6834C51.1221 17.1227 51.0203 17.5692 50.9084 18.0228C48.0869 17.3776 45.0234 16.8978 41.816 16.5997C39.9476 13.9636 38.0115 11.5671 36.0679 9.49232C36.5773 9.00589 37.0988 8.53206 37.6319 8.07127C42.6522 3.74311 47.3442 2.03416 49.482 3.25548ZM34 23.8968C37.3535 23.8968 40.0722 26.5902 40.0722 29.9126C40.0722 33.235 37.3535 35.9284 34 35.9284C30.6465 35.9284 27.9278 33.235 27.9278 29.9126C27.9278 26.5902 30.6465 23.8968 34 23.8968Z" fill="#00D8FF"/>
</g>
<defs>
<clipPath id="clip0_277_390">
<rect width="68" height="60" fill="white"/>
</clipPath>
</defs>
</svg>
