<svg width="54" height="54" viewBox="0 0 54 54" fill="none" xmlns="http://www.w3.org/2000/svg">
<path d="M50.06 26.5126L26.5126 50.06C26.1067 50.5087 25.8889 51.0961 25.904 51.7009C25.9192 52.3057 26.1662 52.8815 26.594 53.3093C27.0217 53.7371 27.5976 53.9841 28.2024 53.9993C28.8072 54.0144 29.3946 53.7965 29.8433 53.3907L53.3907 29.8433C53.7965 29.3946 54.0144 28.8072 53.9993 28.2024C53.9841 27.5976 53.7371 27.0217 53.3093 26.594C52.8815 26.1662 52.3057 25.9192 51.7009 25.904C51.0961 25.8889 50.5087 26.1067 50.06 26.5126ZM45.3505 0.609293L0.609293 45.3505C0.203463 45.7992 -0.0144082 46.3867 0.00074014 46.9914C0.0158885 47.5962 0.262897 48.1721 0.69068 48.5998C1.11846 49.0276 1.69429 49.2746 2.29908 49.2898C2.90387 49.3049 3.49134 49.0871 3.94001 48.6812L48.6812 3.94001C49.0871 3.49134 49.3049 2.90387 49.2898 2.29908C49.2746 1.69429 49.0276 1.11846 48.5998 0.69068C48.1721 0.262897 47.5962 0.0158885 46.9914 0.00074014C46.3867 -0.0144082 45.7992 0.203463 45.3505 0.609293Z" fill="white"/>
</svg>
