<svg width="62" height="62" viewBox="0 0 62 62" fill="none" xmlns="http://www.w3.org/2000/svg">
<g clip-path="url(#clip0_277_385)">
<path d="M31.002 12.401C22.7351 12.401 17.5702 16.5327 15.502 24.7996C18.601 20.6673 22.2188 19.1178 26.351 20.151C28.7104 20.739 30.3965 22.4498 32.2638 24.3457C35.3027 27.4297 38.8203 31 46.502 31C54.7683 31 59.9337 26.8678 62.002 18.5991C58.902 22.7334 55.2854 24.2837 51.1524 23.25C48.7935 22.6615 47.1094 20.9512 45.2397 19.0553C42.2026 15.9713 38.6861 12.401 31.002 12.401ZM15.502 31C7.23561 31 2.07023 35.1322 0.00195312 43.401C3.10163 39.2667 6.71797 37.7164 10.851 38.75C13.2104 39.3386 14.8965 41.0489 16.7638 42.9447C19.8027 46.0287 23.3202 49.5991 31.002 49.5991C39.2683 49.5991 44.4337 45.4674 46.502 37.2005C43.402 41.3329 39.7854 42.8824 35.6524 41.8491C33.2935 41.261 31.6094 39.5502 29.7397 37.6544C26.7026 34.5704 23.1861 31 15.502 31Z" fill="#38BDF8"/>
</g>
<defs>
<clipPath id="clip0_277_385">
<rect width="62" height="62" fill="white"/>
</clipPath>
</defs>
</svg>
