<svg width="58" height="58" viewBox="0 0 58 58" fill="none" xmlns="http://www.w3.org/2000/svg">
<g clip-path="url(#clip0_742_607)">
<path d="M10.2725 21.2969H55.4354V54.6786H10.2725V21.2969Z" fill="white"/>
<path d="M0.679688 28.9592V57.2795H57.3203V0.638916H0.679688V28.9592ZM46.323 26.6936C47.6796 27.0084 48.9126 27.7179 49.8664 28.7327C50.3914 29.2794 50.8479 29.888 51.2258 30.5452C51.2258 30.6177 48.7789 32.2716 47.2881 33.1959C47.2338 33.2322 47.0163 32.9966 46.7761 32.6386C46.504 32.169 46.1173 31.776 45.6521 31.4963C45.187 31.2166 44.6586 31.0593 44.1163 31.0391C42.3989 30.9213 41.2933 31.823 41.3023 33.3047C41.2886 33.6736 41.373 34.0395 41.547 34.365C41.9231 35.1489 42.6255 35.6156 44.8277 36.5672C48.8831 38.3117 50.6186 39.4627 51.697 41.0984C52.9023 42.9109 53.1697 45.8381 52.3541 48.0041C51.4478 50.3603 49.2275 51.9599 46.0873 52.49C44.6531 52.6544 43.204 52.6392 41.7736 52.4447C39.5812 52.0833 37.5617 51.0307 36.0098 49.4405C35.4888 48.865 34.4738 47.3652 34.5372 47.2564C34.7023 47.1331 34.8765 47.0226 35.0583 46.9256L37.1562 45.7656L38.783 44.8231L39.1228 45.3261C39.6965 46.1464 40.4264 46.8454 41.2706 47.3833C43.0831 48.3349 45.5572 48.2034 46.7806 47.1024C47.1914 46.6989 47.4477 46.1641 47.5048 45.5912C47.5619 45.0182 47.4163 44.4434 47.0933 43.9667C46.6402 43.3369 45.7339 42.8067 43.2009 41.7011C40.2783 40.4414 39.0186 39.662 37.8677 38.4205C37.1494 37.601 36.6189 36.6344 36.3134 35.5884C36.0858 34.3933 36.0521 33.1693 36.2137 31.9634C36.8164 29.1405 38.9325 27.1694 42.0228 26.5849C43.454 26.408 44.9036 26.4478 46.323 26.7027V26.6936ZM33.0283 29.068V31.388H25.6741V52.3359H20.4586V31.3834H13.0862V29.1178C13.0631 28.3365 13.0813 27.5546 13.1406 26.7752C13.1769 26.7344 17.6719 26.7344 23.1094 26.7344H33.0011L33.0283 29.068Z" fill="#007ACC"/>
</g>
<defs>
<clipPath id="clip0_742_607">
<rect width="58" height="58" fill="white"/>
</clipPath>
</defs>
</svg>
